<svg width="694" height="142" viewBox="0 0 694 142" fill="none" xmlns="http://www.w3.org/2000/svg">
    <path d="M0.230469 139H26.4697V1.07812H0.230469V139Z" fill="black"/>
    <path d="M42.9029 97.1309C42.9029 109.761 46.1236 120.213 52.565 128.485C59.0696 136.758 67.9107 140.895 79.0884 140.895C85.7193 140.895 91.4029 139.474 96.1392 136.632C100.876 133.79 104.538 130.38 107.128 126.401H107.222L107.317 139H131.378V1.07812H106.843V62.2715C104.254 58.735 100.655 55.8932 96.0445 53.7461C91.4345 51.599 85.7825 50.5254 79.0884 50.5254C68.2265 50.5254 59.48 54.6302 52.8492 62.8398C46.2183 71.0495 42.9029 81.4694 42.9029 94.0996V97.1309ZM68.2896 96.8467V94.4785C68.2896 86.8372 69.8684 80.5537 73.0259 75.6279C76.1835 70.7021 81.1724 68.2393 87.9927 68.2393C92.4765 68.2393 96.3287 69.4076 99.5494 71.7441C102.77 74.0176 105.044 76.7962 106.37 80.0801V110.487C104.98 113.771 102.675 116.708 99.4547 119.297C96.2971 121.886 92.4765 123.181 87.9927 123.181C81.2356 123.181 76.2466 120.718 73.0259 115.792C69.8684 110.866 68.2896 104.551 68.2896 96.8467Z" fill="black"/>
    <path d="M146.39 96.9414C146.39 110.582 150.368 121.349 158.325 129.243C166.282 137.137 177.523 141.084 192.048 141.084C203.099 141.084 211.814 139.095 218.193 135.116C224.634 131.138 229.181 125.896 231.833 119.392L211.183 112.761C209.415 115.918 206.92 118.444 203.699 120.339C200.542 122.233 196.595 123.181 191.859 123.181C185.228 123.181 180.144 120.876 176.608 116.266C173.071 111.656 171.303 105.277 171.303 97.1309V91.542C171.303 84.848 172.945 79.2275 176.229 74.6807C179.512 70.1338 184.344 67.8604 190.722 67.8604C196.911 67.8604 201.363 69.6602 204.078 73.2598C206.794 76.7962 208.151 80.9958 208.151 85.8584V86.4268H159.557V99.9727H232.496V92.8682C232.496 79.4801 228.897 68.9971 221.697 61.4189C214.561 53.8408 204.331 50.0518 191.006 50.0518C177.429 50.0518 166.598 54.0303 158.515 61.9873C150.431 69.9443 146.39 80.5853 146.39 93.9102V96.9414Z" fill="black"/>
    <path d="M242.583 114.276C242.583 122.739 245.172 129.18 250.35 133.601C255.592 138.021 262.791 140.231 271.948 140.231C279.779 140.231 286.252 138.811 291.367 135.969C296.482 133.064 300.113 129.843 302.26 126.307C302.513 128.706 302.924 131.043 303.492 133.316C304.123 135.527 304.913 137.421 305.86 139H330.394V137.579C329.131 135.116 328.216 132.211 327.647 128.864C327.079 125.454 326.795 121.854 326.795 118.065V80.2695C326.795 69.597 323.605 61.9242 317.227 57.251C310.849 52.5778 301.345 50.2412 288.715 50.2412C276.084 50.2412 266.138 52.7041 258.876 57.6299C251.676 62.4925 248.077 68.8076 248.077 76.5752V79.3223L271.285 79.417V77.333C271.285 73.4176 272.643 70.4495 275.358 68.4287C278.074 66.3447 281.957 65.3027 287.009 65.3027C292.188 65.3027 295.914 66.5026 298.187 68.9023C300.524 71.2389 301.692 74.7438 301.692 79.417V86.0479H279.905C268.538 86.0479 259.476 88.637 252.718 93.8154C245.961 98.9307 242.583 105.751 242.583 114.276ZM267.306 112.666C267.306 108.119 268.948 104.804 272.232 102.72C275.579 100.573 280.694 99.499 287.578 99.499H301.692V108.214C301.692 112.634 299.608 116.613 295.44 120.149C291.335 123.686 286.788 125.454 281.799 125.454C277.126 125.454 273.527 124.381 271.001 122.233C268.538 120.086 267.306 116.897 267.306 112.666Z" fill="black"/>
    <path d="M347.112 139H369.278V51.8516C369.278 49.6413 369.278 47.4626 369.278 45.3154C369.278 43.1683 369.183 41.0212 368.993 38.874H369.562C370.067 40.8949 370.698 42.9788 371.456 45.126C372.277 47.2731 373.13 49.2939 374.014 51.1885L417.209 139H442.785V1.07812H420.619V87.4688C420.619 89.6159 420.619 91.8577 420.619 94.1943C420.619 96.4678 420.683 98.6781 420.809 100.825H420.335C419.767 98.8675 419.104 96.752 418.346 94.4785C417.588 92.2051 416.736 90.0579 415.788 88.0371L373.54 1.07812H347.112V139Z" fill="black"/>
    <path d="M463.481 139H488.963V52.4199H463.481V139ZM461.681 20.876C461.681 24.6019 462.913 27.791 465.376 30.4434C467.902 33.0957 471.47 34.4219 476.08 34.4219C480.753 34.4219 484.353 33.1273 486.879 30.5381C489.405 27.8857 490.668 24.665 490.668 20.876C490.668 17.0238 489.436 13.8346 486.973 11.3086C484.511 8.78255 480.943 7.51953 476.269 7.51953C471.596 7.51953 467.997 8.81413 465.471 11.4033C462.944 13.9925 461.681 17.1501 461.681 20.876Z" fill="black"/>
    <path d="M504.259 97.0361C504.259 110.677 508.269 121.444 516.289 129.338C524.31 137.169 535.045 141.084 548.496 141.084C561.884 141.084 572.178 138.084 579.377 132.085C586.64 126.086 590.334 117.718 590.46 106.982L590.555 105.088H566.305V106.414C566.242 111.656 564.758 115.729 561.853 118.634C558.948 121.539 554.685 122.991 549.065 122.991C542.813 122.991 538.013 120.718 534.666 116.171C531.319 111.624 529.646 105.467 529.646 97.6992V93.2471C529.646 85.0374 531.351 78.8486 534.761 74.6807C538.171 70.4495 542.971 68.334 549.16 68.334C554.654 68.334 558.822 69.7865 561.663 72.6914C564.568 75.5332 566.021 79.5433 566.021 84.7217V85.9531H590.366V84.1533C590.05 73.2282 586.324 64.7975 579.188 58.8613C572.052 52.9251 561.758 49.957 548.307 49.957C534.856 49.957 524.152 53.8408 516.195 61.6084C508.238 69.376 504.259 80.1432 504.259 93.9102V97.0361Z" fill="black"/>
    <path d="M605.094 139H630.102V113.234L689.116 52.4199H660.035L630.102 85.1953V0.983398H605.094V139ZM664.393 139H693.568L649.994 78.0908L634.364 95.2363L664.393 139Z" fill="black"/>
</svg>